<mxfile host="app.diagrams.net" modified="2024-05-29T04:16:21.316Z" agent="Mozilla/5.0 (Windows NT 10.0; Win64; x64) AppleWebKit/537.36 (KHTML, like Gecko) Chrome/124.0.0.0 Safari/537.36 Edg/124.0.0.0" etag="XuuUCgeIizo3s31T8SWQ" version="24.3.0" type="github">
  <diagram name="Page-1" id="PuLB1DdDrO7nmJHF8hCm">
    <mxGraphModel dx="2093" dy="1942" grid="1" gridSize="10" guides="1" tooltips="1" connect="1" arrows="1" fold="1" page="1" pageScale="1" pageWidth="850" pageHeight="1100" math="0" shadow="0">
      <root>
        <mxCell id="0" />
        <mxCell id="1" parent="0" />
        <mxCell id="OUQnIHwVqGI0HXNHsA7D-2" value="&lt;font style=&quot;font-size: 20px;&quot;&gt;Home Screen&lt;/font&gt;" style="swimlane;whiteSpace=wrap;html=1;" parent="1" vertex="1">
          <mxGeometry x="290" y="140" width="200" height="200" as="geometry" />
        </mxCell>
        <mxCell id="OUQnIHwVqGI0HXNHsA7D-3" value="&lt;font style=&quot;font-size: 18px;&quot;&gt;&amp;lt;&amp;lt;button&amp;gt;&amp;gt;&lt;/font&gt;&lt;div style=&quot;font-size: 18px;&quot;&gt;&lt;font style=&quot;font-size: 18px;&quot;&gt;EditHouse&lt;/font&gt;&lt;/div&gt;&lt;div style=&quot;font-size: 18px;&quot;&gt;&lt;font style=&quot;font-size: 18px;&quot;&gt;&amp;lt;&amp;lt;button&amp;gt;&amp;gt;&lt;/font&gt;&lt;/div&gt;&lt;div style=&quot;font-size: 18px;&quot;&gt;&lt;font style=&quot;font-size: 18px;&quot;&gt;MaterialDatabase&lt;/font&gt;&lt;/div&gt;&lt;div style=&quot;font-size: 18px;&quot;&gt;&lt;font style=&quot;font-size: 18px;&quot;&gt;&amp;lt;&amp;lt;button&amp;gt;&amp;gt;&lt;/font&gt;&lt;/div&gt;&lt;div style=&quot;font-size: 18px;&quot;&gt;&lt;font style=&quot;font-size: 18px;&quot;&gt;Settings (tentative)&lt;/font&gt;&lt;/div&gt;" style="text;html=1;align=center;verticalAlign=middle;resizable=0;points=[];autosize=1;strokeColor=none;fillColor=none;" parent="OUQnIHwVqGI0HXNHsA7D-2" vertex="1">
          <mxGeometry x="15" y="30" width="170" height="140" as="geometry" />
        </mxCell>
        <mxCell id="OUQnIHwVqGI0HXNHsA7D-4" value="" style="endArrow=classic;html=1;rounded=0;" parent="1" edge="1">
          <mxGeometry width="50" height="50" relative="1" as="geometry">
            <mxPoint x="490" y="240" as="sourcePoint" />
            <mxPoint x="600" y="240" as="targetPoint" />
          </mxGeometry>
        </mxCell>
        <mxCell id="OUQnIHwVqGI0HXNHsA7D-5" value="Click EditHouse&amp;nbsp;&lt;div&gt;button&lt;/div&gt;" style="text;html=1;align=center;verticalAlign=middle;resizable=0;points=[];autosize=1;strokeColor=none;fillColor=none;" parent="1" vertex="1">
          <mxGeometry x="500" y="200" width="110" height="40" as="geometry" />
        </mxCell>
        <mxCell id="OUQnIHwVqGI0HXNHsA7D-6" value="EditHouse" style="swimlane;whiteSpace=wrap;html=1;" parent="1" vertex="1">
          <mxGeometry x="600" y="230" width="170" height="220" as="geometry" />
        </mxCell>
        <mxCell id="OUQnIHwVqGI0HXNHsA7D-7" value="&lt;font style=&quot;font-size: 11px;&quot;&gt;&amp;lt;&amp;lt;button&amp;gt;&amp;gt;&lt;/font&gt;&lt;div style=&quot;font-size: 11px;&quot;&gt;&lt;font style=&quot;font-size: 11px;&quot;&gt;addUtitlity&lt;/font&gt;&lt;/div&gt;&lt;div style=&quot;font-size: 11px;&quot;&gt;&lt;font style=&quot;font-size: 11px;&quot;&gt;&amp;lt;&amp;lt;button&amp;gt;&amp;gt;&lt;/font&gt;&lt;/div&gt;&lt;div style=&quot;font-size: 11px;&quot;&gt;&lt;font style=&quot;font-size: 11px;&quot;&gt;removeUtility&lt;/font&gt;&lt;/div&gt;&lt;div style=&quot;font-size: 11px;&quot;&gt;&lt;font style=&quot;font-size: 11px;&quot;&gt;&amp;lt;&amp;lt;button&amp;gt;&amp;gt;&lt;br&gt;AddMaterial&lt;/font&gt;&lt;/div&gt;&lt;div style=&quot;font-size: 11px;&quot;&gt;&lt;font style=&quot;font-size: 11px;&quot;&gt;&amp;lt;&amp;lt;numeric value&amp;gt;&amp;gt;&lt;br&gt;Square Footage&lt;/font&gt;&lt;/div&gt;&lt;div style=&quot;font-size: 11px;&quot;&gt;&lt;font style=&quot;font-size: 11px;&quot;&gt;&amp;lt;&amp;lt;dropdown menu&amp;gt;&amp;gt;&lt;/font&gt;&lt;/div&gt;&lt;div style=&quot;font-size: 11px;&quot;&gt;&lt;font style=&quot;font-size: 11px;&quot;&gt;Style&lt;/font&gt;&lt;/div&gt;&lt;div style=&quot;font-size: 11px;&quot;&gt;&lt;font style=&quot;font-size: 11px;&quot;&gt;&amp;lt;&amp;lt;button&amp;gt;&amp;gt;&lt;/font&gt;&lt;/div&gt;&lt;div style=&quot;font-size: 11px;&quot;&gt;&lt;font style=&quot;font-size: 11px;&quot;&gt;AddProduct&lt;/font&gt;&lt;/div&gt;" style="text;html=1;align=center;verticalAlign=middle;resizable=0;points=[];autosize=1;strokeColor=none;fillColor=none;" parent="OUQnIHwVqGI0HXNHsA7D-6" vertex="1">
          <mxGeometry x="20" y="35" width="130" height="170" as="geometry" />
        </mxCell>
        <mxCell id="OUQnIHwVqGI0HXNHsA7D-9" value="" style="endArrow=classic;html=1;rounded=0;exitX=0;exitY=0.5;exitDx=0;exitDy=0;" parent="1" source="OUQnIHwVqGI0HXNHsA7D-2" edge="1">
          <mxGeometry width="50" height="50" relative="1" as="geometry">
            <mxPoint x="310" y="310" as="sourcePoint" />
            <mxPoint x="180" y="240" as="targetPoint" />
          </mxGeometry>
        </mxCell>
        <mxCell id="OUQnIHwVqGI0HXNHsA7D-10" value="Click MaterialDatabase&amp;nbsp;&lt;div&gt;button&lt;/div&gt;" style="text;html=1;align=center;verticalAlign=middle;resizable=0;points=[];autosize=1;strokeColor=none;fillColor=none;" parent="1" vertex="1">
          <mxGeometry x="140" y="200" width="150" height="40" as="geometry" />
        </mxCell>
        <mxCell id="OUQnIHwVqGI0HXNHsA7D-11" value="MaterialDatabase" style="swimlane;whiteSpace=wrap;html=1;" parent="1" vertex="1">
          <mxGeometry x="20" y="230" width="160" height="160" as="geometry" />
        </mxCell>
        <mxCell id="OUQnIHwVqGI0HXNHsA7D-18" value="&amp;lt;&amp;lt;button&amp;gt;&amp;gt;&lt;div&gt;AddMaterial&lt;/div&gt;&lt;div&gt;&amp;lt;&amp;lt;button&amp;gt;&amp;gt;&lt;/div&gt;&lt;div&gt;removeMaterial&lt;/div&gt;&lt;div&gt;&amp;lt;&amp;lt;button&amp;gt;&amp;gt;&lt;/div&gt;&lt;div&gt;AddProduct&lt;/div&gt;&lt;div&gt;&amp;lt;&amp;lt;button&amp;gt;&amp;gt;&lt;/div&gt;&lt;div&gt;removeProduct&lt;/div&gt;" style="text;html=1;align=center;verticalAlign=middle;resizable=0;points=[];autosize=1;strokeColor=none;fillColor=none;" parent="OUQnIHwVqGI0HXNHsA7D-11" vertex="1">
          <mxGeometry x="25" y="20" width="110" height="130" as="geometry" />
        </mxCell>
        <mxCell id="OUQnIHwVqGI0HXNHsA7D-19" value="" style="endArrow=classic;html=1;rounded=0;" parent="OUQnIHwVqGI0HXNHsA7D-11" edge="1">
          <mxGeometry width="50" height="50" relative="1" as="geometry">
            <mxPoint y="90" as="sourcePoint" />
            <mxPoint x="-100" y="90" as="targetPoint" />
          </mxGeometry>
        </mxCell>
        <mxCell id="OUQnIHwVqGI0HXNHsA7D-14" value="" style="endArrow=none;html=1;rounded=0;" parent="1" edge="1">
          <mxGeometry width="50" height="50" relative="1" as="geometry">
            <mxPoint x="100" y="440" as="sourcePoint" />
            <mxPoint x="600" y="440" as="targetPoint" />
          </mxGeometry>
        </mxCell>
        <mxCell id="OUQnIHwVqGI0HXNHsA7D-16" value="" style="endArrow=classic;html=1;rounded=0;" parent="1" edge="1">
          <mxGeometry width="50" height="50" relative="1" as="geometry">
            <mxPoint x="100" y="440" as="sourcePoint" />
            <mxPoint x="-80" y="400" as="targetPoint" />
          </mxGeometry>
        </mxCell>
        <mxCell id="OUQnIHwVqGI0HXNHsA7D-17" value="Click AddMaterial button" style="text;html=1;align=center;verticalAlign=middle;resizable=0;points=[];autosize=1;strokeColor=none;fillColor=none;" parent="1" vertex="1">
          <mxGeometry x="270" y="410" width="150" height="30" as="geometry" />
        </mxCell>
        <mxCell id="OUQnIHwVqGI0HXNHsA7D-20" value="Click AddMaterial button" style="text;html=1;align=center;verticalAlign=middle;whiteSpace=wrap;rounded=0;" parent="1" vertex="1">
          <mxGeometry x="-60" y="280" width="60" height="30" as="geometry" />
        </mxCell>
        <mxCell id="OUQnIHwVqGI0HXNHsA7D-21" value="AddMaterial (overlay)" style="swimlane;whiteSpace=wrap;html=1;" parent="1" vertex="1">
          <mxGeometry x="-230" y="270" width="150" height="160" as="geometry" />
        </mxCell>
        <mxCell id="OUQnIHwVqGI0HXNHsA7D-22" value="&amp;lt;&amp;lt;text box&amp;gt;&amp;gt;&lt;div&gt;Name&lt;/div&gt;&lt;div&gt;&amp;lt;&amp;lt;combo box&amp;gt;&amp;gt;&lt;/div&gt;&lt;div&gt;Type&lt;/div&gt;&lt;div&gt;&amp;lt;&amp;lt;numeric value&amp;gt;&amp;gt;&lt;br&gt;Insulation Efficiency&lt;/div&gt;" style="text;html=1;align=center;verticalAlign=middle;resizable=0;points=[];autosize=1;strokeColor=none;fillColor=none;" parent="OUQnIHwVqGI0HXNHsA7D-21" vertex="1">
          <mxGeometry x="10" y="35" width="130" height="100" as="geometry" />
        </mxCell>
        <mxCell id="OUQnIHwVqGI0HXNHsA7D-23" value="" style="endArrow=classic;html=1;rounded=0;" parent="1" edge="1">
          <mxGeometry width="50" height="50" relative="1" as="geometry">
            <mxPoint x="100" y="230" as="sourcePoint" />
            <mxPoint x="100" y="140" as="targetPoint" />
          </mxGeometry>
        </mxCell>
        <mxCell id="OUQnIHwVqGI0HXNHsA7D-24" value="Click&amp;nbsp;&lt;div&gt;AddProduct&amp;nbsp;&lt;div&gt;button&lt;/div&gt;&lt;/div&gt;" style="text;html=1;align=center;verticalAlign=middle;resizable=0;points=[];autosize=1;strokeColor=none;fillColor=none;" parent="1" vertex="1">
          <mxGeometry x="20" y="160" width="90" height="60" as="geometry" />
        </mxCell>
        <mxCell id="OUQnIHwVqGI0HXNHsA7D-25" value="AddProduct (overlay)" style="swimlane;whiteSpace=wrap;html=1;" parent="1" vertex="1">
          <mxGeometry x="10" y="-80" width="180" height="220" as="geometry" />
        </mxCell>
        <mxCell id="OUQnIHwVqGI0HXNHsA7D-26" value="&amp;lt;&amp;lt;checkbox&amp;gt;&amp;gt;&lt;div&gt;Utility / Controller&lt;/div&gt;&lt;div&gt;&amp;lt;&amp;lt;text box&amp;gt;&amp;gt;&lt;/div&gt;&lt;div&gt;Name&lt;/div&gt;&lt;div&gt;&amp;lt;&amp;lt;text box&amp;gt;&amp;gt;&lt;/div&gt;&lt;div&gt;Description&lt;/div&gt;&lt;div&gt;&amp;lt;&amp;lt;button&amp;gt;&amp;gt;&lt;/div&gt;&lt;div&gt;VendorInfo&lt;/div&gt;" style="text;html=1;align=center;verticalAlign=middle;resizable=0;points=[];autosize=1;strokeColor=none;fillColor=none;" parent="OUQnIHwVqGI0HXNHsA7D-25" vertex="1">
          <mxGeometry x="35" y="45" width="110" height="130" as="geometry" />
        </mxCell>
        <mxCell id="OUQnIHwVqGI0HXNHsA7D-31" value="" style="endArrow=classic;html=1;rounded=0;" parent="OUQnIHwVqGI0HXNHsA7D-25" edge="1">
          <mxGeometry width="50" height="50" relative="1" as="geometry">
            <mxPoint y="120" as="sourcePoint" />
            <mxPoint x="-130" y="120" as="targetPoint" />
          </mxGeometry>
        </mxCell>
        <mxCell id="OUQnIHwVqGI0HXNHsA7D-27" value="" style="endArrow=classic;html=1;rounded=0;" parent="1" edge="1">
          <mxGeometry width="50" height="50" relative="1" as="geometry">
            <mxPoint x="190" y="40" as="sourcePoint" />
            <mxPoint x="280" as="targetPoint" />
          </mxGeometry>
        </mxCell>
        <mxCell id="OUQnIHwVqGI0HXNHsA7D-28" value="Select &quot;Controller&quot; &lt;br&gt;in checkbox" style="text;html=1;align=center;verticalAlign=middle;resizable=0;points=[];autosize=1;strokeColor=none;fillColor=none;" parent="1" vertex="1">
          <mxGeometry x="200" y="30" width="120" height="40" as="geometry" />
        </mxCell>
        <mxCell id="OUQnIHwVqGI0HXNHsA7D-29" value="ControllerInfo (overlay)" style="swimlane;whiteSpace=wrap;html=1;startSize=23;" parent="1" vertex="1">
          <mxGeometry x="280" y="-140" width="140" height="160" as="geometry" />
        </mxCell>
        <mxCell id="OUQnIHwVqGI0HXNHsA7D-35" value="&amp;lt;&amp;lt;percentage value&amp;gt;&amp;gt;&lt;div&gt;Power Affector&lt;/div&gt;" style="text;html=1;align=center;verticalAlign=middle;resizable=0;points=[];autosize=1;strokeColor=none;fillColor=none;" parent="OUQnIHwVqGI0HXNHsA7D-29" vertex="1">
          <mxGeometry y="60" width="140" height="40" as="geometry" />
        </mxCell>
        <mxCell id="OUQnIHwVqGI0HXNHsA7D-32" value="UtilityInfo (overlay)" style="swimlane;whiteSpace=wrap;html=1;" parent="1" vertex="1">
          <mxGeometry x="-290" y="-60" width="170" height="190" as="geometry" />
        </mxCell>
        <mxCell id="OUQnIHwVqGI0HXNHsA7D-34" value="&amp;lt;&amp;lt;numeric time value&amp;gt;&amp;gt;&lt;div&gt;Operational Time&lt;/div&gt;&lt;div&gt;&amp;lt;&amp;lt;numeric value&amp;gt;&amp;gt;&lt;br&gt;Power Consumption&lt;/div&gt;" style="text;html=1;align=center;verticalAlign=middle;resizable=0;points=[];autosize=1;strokeColor=none;fillColor=none;" parent="OUQnIHwVqGI0HXNHsA7D-32" vertex="1">
          <mxGeometry x="10" y="60" width="150" height="70" as="geometry" />
        </mxCell>
        <mxCell id="OUQnIHwVqGI0HXNHsA7D-33" value="Select &quot;Utility&quot;&amp;nbsp;&lt;div&gt;in checkbox&lt;/div&gt;" style="text;html=1;align=center;verticalAlign=middle;resizable=0;points=[];autosize=1;strokeColor=none;fillColor=none;" parent="1" vertex="1">
          <mxGeometry x="-100" width="100" height="40" as="geometry" />
        </mxCell>
        <mxCell id="OUQnIHwVqGI0HXNHsA7D-36" value="" style="endArrow=classic;html=1;rounded=0;" parent="1" edge="1">
          <mxGeometry width="50" height="50" relative="1" as="geometry">
            <mxPoint x="100" y="-80" as="sourcePoint" />
            <mxPoint x="100" y="-160" as="targetPoint" />
          </mxGeometry>
        </mxCell>
        <mxCell id="OUQnIHwVqGI0HXNHsA7D-37" value="VendorInfo(overlay)" style="swimlane;whiteSpace=wrap;html=1;" parent="1" vertex="1">
          <mxGeometry x="20" y="-340" width="160" height="180" as="geometry" />
        </mxCell>
        <mxCell id="OUQnIHwVqGI0HXNHsA7D-39" value="&amp;lt;&amp;lt;text box&amp;gt;&amp;gt;&lt;div&gt;Vendor Name&lt;/div&gt;&lt;div&gt;&amp;lt;&amp;lt;numeric value&amp;gt;&amp;gt;&lt;br&gt;Price&lt;/div&gt;&lt;div&gt;&amp;lt;&amp;lt;text box&amp;gt;&amp;gt;&lt;br&gt;Source&lt;/div&gt;" style="text;html=1;align=center;verticalAlign=middle;resizable=0;points=[];autosize=1;strokeColor=none;fillColor=none;" parent="OUQnIHwVqGI0HXNHsA7D-37" vertex="1">
          <mxGeometry x="15" y="40" width="130" height="100" as="geometry" />
        </mxCell>
        <mxCell id="OUQnIHwVqGI0HXNHsA7D-38" value="Click VendorInfo&lt;div&gt;button&lt;/div&gt;" style="text;html=1;align=center;verticalAlign=middle;resizable=0;points=[];autosize=1;strokeColor=none;fillColor=none;" parent="1" vertex="1">
          <mxGeometry x="100" y="-140" width="110" height="40" as="geometry" />
        </mxCell>
        <mxCell id="fruT9f8GjVpo4-_wTnko-1" value="" style="endArrow=classic;html=1;rounded=0;" edge="1" parent="1">
          <mxGeometry width="50" height="50" relative="1" as="geometry">
            <mxPoint x="390" y="140" as="sourcePoint" />
            <mxPoint x="510" y="40" as="targetPoint" />
          </mxGeometry>
        </mxCell>
        <mxCell id="fruT9f8GjVpo4-_wTnko-2" value="Settings (tentative)" style="swimlane;whiteSpace=wrap;html=1;" vertex="1" parent="1">
          <mxGeometry x="510" y="-100" width="160" height="170" as="geometry" />
        </mxCell>
        <mxCell id="fruT9f8GjVpo4-_wTnko-3" value="&amp;lt;&amp;lt;dropdown menu&amp;gt;&amp;gt;&lt;div&gt;Theme&amp;nbsp;&lt;/div&gt;&lt;div&gt;(light/dark/color scheme)&lt;br&gt;&lt;div&gt;&lt;br&gt;&lt;/div&gt;&lt;/div&gt;" style="text;html=1;align=center;verticalAlign=middle;resizable=0;points=[];autosize=1;strokeColor=none;fillColor=none;" vertex="1" parent="fruT9f8GjVpo4-_wTnko-2">
          <mxGeometry x="5" y="70" width="150" height="70" as="geometry" />
        </mxCell>
        <mxCell id="fruT9f8GjVpo4-_wTnko-4" value="Click Settings button" style="text;html=1;align=center;verticalAlign=middle;resizable=0;points=[];autosize=1;strokeColor=none;fillColor=none;" vertex="1" parent="1">
          <mxGeometry x="430" y="90" width="130" height="30" as="geometry" />
        </mxCell>
        <mxCell id="fruT9f8GjVpo4-_wTnko-8" value="" style="endArrow=none;html=1;rounded=0;" edge="1" parent="1">
          <mxGeometry width="50" height="50" relative="1" as="geometry">
            <mxPoint x="600" y="520" as="sourcePoint" />
            <mxPoint x="690" y="450" as="targetPoint" />
          </mxGeometry>
        </mxCell>
        <mxCell id="fruT9f8GjVpo4-_wTnko-9" value="" style="endArrow=none;html=1;rounded=0;" edge="1" parent="1">
          <mxGeometry width="50" height="50" relative="1" as="geometry">
            <mxPoint x="-321.77783203125" y="520" as="sourcePoint" />
            <mxPoint x="600" y="520" as="targetPoint" />
          </mxGeometry>
        </mxCell>
        <mxCell id="fruT9f8GjVpo4-_wTnko-10" value="" style="endArrow=none;html=1;rounded=0;" edge="1" parent="1">
          <mxGeometry width="50" height="50" relative="1" as="geometry">
            <mxPoint x="-320" y="520" as="sourcePoint" />
            <mxPoint x="-320" y="200" as="targetPoint" />
          </mxGeometry>
        </mxCell>
        <mxCell id="fruT9f8GjVpo4-_wTnko-11" value="" style="endArrow=classic;html=1;rounded=0;" edge="1" parent="1">
          <mxGeometry width="50" height="50" relative="1" as="geometry">
            <mxPoint x="-320" y="200" as="sourcePoint" />
            <mxPoint x="10" y="130" as="targetPoint" />
          </mxGeometry>
        </mxCell>
        <mxCell id="fruT9f8GjVpo4-_wTnko-12" value="Click AddProduct button" style="text;html=1;align=center;verticalAlign=middle;resizable=0;points=[];autosize=1;strokeColor=none;fillColor=none;" vertex="1" parent="1">
          <mxGeometry x="440" y="480" width="150" height="30" as="geometry" />
        </mxCell>
      </root>
    </mxGraphModel>
  </diagram>
</mxfile>
